<svg xmlns="http://www.w3.org/2000/svg" width="54" height="54" viewBox="0 0 54 54"><defs><linearGradient id="7x0ca" x1="27" x2="27" y1="54" y2="0" gradientUnits="userSpaceOnUse"><stop offset="0" stop-color="#16ac9f"/><stop offset="1" stop-color="#1a4865"/></linearGradient></defs><g><g><path fill="#16ac9f" d="M23.4 49.5a4.505 4.505 0 0 1-4.5 4.5H4.5A4.505 4.505 0 0 1 0 49.5a.9.9 0 0 1 .9-.9h1.8v-9.9a.9.9 0 0 1 .9-.9h16.2a.9.9 0 0 1 .9.9v9.9h1.8a.9.9 0 0 1 .9.9zm-18.9-.9h.9v-7.2a.9.9 0 0 1 .9-.9h10.8a.9.9 0 0 1 .9.9v7.2h.9v-9H4.5zm2.7-6.3v6.3h9v-6.3zm14.246 8.1H1.954A2.705 2.705 0 0 0 4.5 52.2h14.4a2.705 2.705 0 0 0 2.546-1.8zM23.4 11.7a4.505 4.505 0 0 1-4.5 4.5H4.5A4.505 4.505 0 0 1 0 11.7a.9.9 0 0 1 .9-.9h1.8V.9a.9.9 0 0 1 .9-.9h16.2a.9.9 0 0 1 .9.9v9.9h1.8a.9.9 0 0 1 .9.9zm-18.9-.9h.9V3.6a.9.9 0 0 1 .9-.9h10.8a.9.9 0 0 1 .9.9v7.2h.9v-9H4.5zm2.7-6.3v6.3h9V4.5zm14.246 8.099H1.954a2.705 2.705 0 0 0 2.546 1.8h14.4a2.705 2.705 0 0 0 2.546-1.8zM54 49.499a4.505 4.505 0 0 1-4.5 4.5H35.1a4.505 4.505 0 0 1-4.5-4.5.9.9 0 0 1 .9-.9h1.8v-9.9a.9.9 0 0 1 .9-.9h16.2a.9.9 0 0 1 .9.9v9.9h1.8a.9.9 0 0 1 .9.9zm-18.9-.9h.9v-7.2a.9.9 0 0 1 .9-.9h10.8a.9.9 0 0 1 .9.9v7.2h.9v-9H35.1zm2.7-6.3v6.3h9v-6.3zm14.246 8.1H32.554a2.705 2.705 0 0 0 2.546 1.8h14.4a2.705 2.705 0 0 0 2.546-1.8zM54 11.7a4.505 4.505 0 0 1-4.5 4.5H35.1a4.505 4.505 0 0 1-4.5-4.5.9.9 0 0 1 .9-.9h1.8V.9a.9.9 0 0 1 .9-.9h16.2a.9.9 0 0 1 .9.9v9.9h1.8a.9.9 0 0 1 .9.9zm-18.9-.9h.9V3.6a.9.9 0 0 1 .9-.9h10.8a.9.9 0 0 1 .9.9v7.2h.9v-9H35.1zm2.7-6.3v6.3h9V4.5zm14.246 8.1H32.554a2.705 2.705 0 0 0 2.546 1.8h14.4a2.705 2.705 0 0 0 2.546-1.8zM36.9 29.699v3.6a.9.9 0 0 1-.9.9H18a.9.9 0 0 1-.9-.9V22.5a.9.9 0 0 1 .9-.9h7.686l.026-.03a5.392 5.392 0 0 1 8.002 7.23H36a.9.9 0 0 1 .9.9zm-18-4.5h5.4a5.382 5.382 0 0 1 .315-1.8H18.9zm0 3.6h6.786a5.407 5.407 0 0 1-1.071-1.8H18.9zm7.2 1.8h-7.2v1.8h7.2zm3.6-1.8a3.6 3.6 0 1 0 0-7.2 3.6 3.6 0 0 0 0 7.2zm5.4 1.8h-7.2v1.8h7.2zM22.5 4.5h1.8v1.8h-1.8zm7.2 0h1.8v1.8h-1.8zm-3.6 0h1.8v1.8h-1.8zM9.9 18.9h1.8v1.8H9.9zm0 3.6h1.8v1.8H9.9zm0 10.8h1.8v1.8H9.9zm0-7.2h1.8v1.8H9.9zm0 3.6h1.8v1.8H9.9zm12.6 12.6h1.8v1.8h-1.8zm3.6 0h1.8v1.8h-1.8zm3.6 0h1.8v1.8h-1.8zm11.7-12.6h1.8v1.8h-1.8zm0-3.6h1.8v1.8h-1.8zm0-3.6h1.8v1.8h-1.8zm0-3.6h1.8v1.8h-1.8zm0 14.4h1.8v1.8h-1.8z"/><path fill="url(#7x0ca)" d="M23.4 49.5a4.505 4.505 0 0 1-4.5 4.5H4.5A4.505 4.505 0 0 1 0 49.5a.9.9 0 0 1 .9-.9h1.8v-9.9a.9.9 0 0 1 .9-.9h16.2a.9.9 0 0 1 .9.9v9.9h1.8a.9.9 0 0 1 .9.9zm-18.9-.9h.9v-7.2a.9.9 0 0 1 .9-.9h10.8a.9.9 0 0 1 .9.9v7.2h.9v-9H4.5zm2.7-6.3v6.3h9v-6.3zm14.246 8.1H1.954A2.705 2.705 0 0 0 4.5 52.2h14.4a2.705 2.705 0 0 0 2.546-1.8zM23.4 11.7a4.505 4.505 0 0 1-4.5 4.5H4.5A4.505 4.505 0 0 1 0 11.7a.9.9 0 0 1 .9-.9h1.8V.9a.9.9 0 0 1 .9-.9h16.2a.9.9 0 0 1 .9.9v9.9h1.8a.9.9 0 0 1 .9.9zm-18.9-.9h.9V3.6a.9.9 0 0 1 .9-.9h10.8a.9.9 0 0 1 .9.9v7.2h.9v-9H4.5zm2.7-6.3v6.3h9V4.5zm14.246 8.099H1.954a2.705 2.705 0 0 0 2.546 1.8h14.4a2.705 2.705 0 0 0 2.546-1.8zM54 49.499a4.505 4.505 0 0 1-4.5 4.5H35.1a4.505 4.505 0 0 1-4.5-4.5.9.9 0 0 1 .9-.9h1.8v-9.9a.9.9 0 0 1 .9-.9h16.2a.9.9 0 0 1 .9.9v9.9h1.8a.9.9 0 0 1 .9.9zm-18.9-.9h.9v-7.2a.9.9 0 0 1 .9-.9h10.8a.9.9 0 0 1 .9.9v7.2h.9v-9H35.1zm2.7-6.3v6.3h9v-6.3zm14.246 8.1H32.554a2.705 2.705 0 0 0 2.546 1.8h14.4a2.705 2.705 0 0 0 2.546-1.8zM54 11.7a4.505 4.505 0 0 1-4.5 4.5H35.1a4.505 4.505 0 0 1-4.5-4.5.9.9 0 0 1 .9-.9h1.8V.9a.9.9 0 0 1 .9-.9h16.2a.9.9 0 0 1 .9.9v9.9h1.8a.9.9 0 0 1 .9.9zm-18.9-.9h.9V3.6a.9.9 0 0 1 .9-.9h10.8a.9.9 0 0 1 .9.9v7.2h.9v-9H35.1zm2.7-6.3v6.3h9V4.5zm14.246 8.1H32.554a2.705 2.705 0 0 0 2.546 1.8h14.4a2.705 2.705 0 0 0 2.546-1.8zM36.9 29.699v3.6a.9.9 0 0 1-.9.9H18a.9.9 0 0 1-.9-.9V22.5a.9.9 0 0 1 .9-.9h7.686l.026-.03a5.392 5.392 0 0 1 8.002 7.23H36a.9.9 0 0 1 .9.9zm-18-4.5h5.4a5.382 5.382 0 0 1 .315-1.8H18.9zm0 3.6h6.786a5.407 5.407 0 0 1-1.071-1.8H18.9zm7.2 1.8h-7.2v1.8h7.2zm3.6-1.8a3.6 3.6 0 1 0 0-7.2 3.6 3.6 0 0 0 0 7.2zm5.4 1.8h-7.2v1.8h7.2zM22.5 4.5h1.8v1.8h-1.8zm7.2 0h1.8v1.8h-1.8zm-3.6 0h1.8v1.8h-1.8zM9.9 18.9h1.8v1.8H9.9zm0 3.6h1.8v1.8H9.9zm0 10.8h1.8v1.8H9.9zm0-7.2h1.8v1.8H9.9zm0 3.6h1.8v1.8H9.9zm12.6 12.6h1.8v1.8h-1.8zm3.6 0h1.8v1.8h-1.8zm3.6 0h1.8v1.8h-1.8zm11.7-12.6h1.8v1.8h-1.8zm0-3.6h1.8v1.8h-1.8zm0-3.6h1.8v1.8h-1.8zm0-3.6h1.8v1.8h-1.8zm0 14.4h1.8v1.8h-1.8z"/></g></g></svg>