<svg xmlns="http://www.w3.org/2000/svg" width="55" height="60" viewBox="0 0 55 60"><defs><linearGradient id="pheza" x1="27.69" x2="27.42" y1="59.8" y2=".53" gradientUnits="userSpaceOnUse"><stop offset="0" stop-color="#16ac9f"/><stop offset="1" stop-color="#1a4865"/></linearGradient></defs><g><g><path fill="#00a79d" d="M33.479 6.498a.872.872 0 0 1-.26.62l-5.182 5.098a.866.866 0 0 1-1.474-.622V10.32c-7.957.402-14.981 5.615-17.652 13.197a.866.866 0 0 1-1.106.53.87.87 0 0 1-.528-1.11c3.01-8.546 11.107-14.326 20.148-14.38.234.001.452.089.616.252a.872.872 0 0 1 .256.617v.098l3.077-3.026-3.077-3.026v.306a.868.868 0 0 1-.863.87c-6.759.032-13.107 2.696-17.877 7.501-4.771 4.807-7.4 11.19-7.4 17.974 0 8.946 4.693 17.23 12.307 21.832l1.84-3.452a21.627 21.627 0 0 1-9.942-22.037.868.868 0 0 1 1-.71.87.87 0 0 1 .71 1.004 19.882 19.882 0 0 0 9.814 20.659c.41.231.56.75.339 1.167l-2.655 4.982a.869.869 0 0 1-.765.46.852.852 0 0 1-.421-.11A27.266 27.266 0 0 1 .424 30.123c0-7.247 2.807-14.065 7.904-19.2 4.892-4.929 11.339-7.75 18.235-7.997V1.401A.868.868 0 0 1 28.037.78l5.182 5.097a.87.87 0 0 1 .26.62zm21.212 23.625c0 7.188-2.769 13.968-7.797 19.09-4.822 4.911-11.195 7.765-18.025 8.09v1.624a.87.87 0 0 1-.867.87.865.865 0 0 1-.607-.25l-5.182-5.096a.872.872 0 0 1 0-1.241l5.182-5.097a.865.865 0 0 1 1.474.62v1.172a19.706 19.706 0 0 0 8.83-2.761 19.926 19.926 0 0 0 6.922-7.003.866.866 0 0 1 1.186-.31.871.871 0 0 1 .309 1.19 21.678 21.678 0 0 1-7.526 7.615 21.442 21.442 0 0 1-10.57 3.046.87.87 0 0 1-.885-.87v-.009l-3.077 3.027 3.077 3.026v-.395c0-.475.38-.862.853-.87 6.694-.111 12.97-2.81 17.67-7.598 4.707-4.795 7.3-11.141 7.3-17.87a25.52 25.52 0 0 0-3.388-12.719 25.612 25.612 0 0 0-8.146-8.628L39.58 12.24a21.69 21.69 0 0 1 6.687 7.244 21.615 21.615 0 0 1 2.794 10.639c0 2.617-.462 5.176-1.375 7.604a.866.866 0 0 1-1.117.507.87.87 0 0 1-.505-1.12 19.806 19.806 0 0 0 1.264-6.991c0-3.433-.888-6.814-2.569-9.78a19.947 19.947 0 0 0-6.777-7.07.871.871 0 0 1-.307-1.15l2.66-4.99a.867.867 0 0 1 1.211-.335 27.353 27.353 0 0 1 9.526 9.736 27.273 27.273 0 0 1 3.62 13.589zm-11.926.976c0 2.63-.64 5.245-1.85 7.562a.866.866 0 0 1-1.218.34l-1.394-.852c-2.338 3.698-6.456 6.159-11.137 6.159-3.562 0-6.9-1.404-9.397-3.951a.872.872 0 0 1 .01-1.23.866.866 0 0 1 1.226.01 11.344 11.344 0 0 0 8.161 3.431c4.055 0 7.623-2.125 9.657-5.324l-9.775-5.969a.87.87 0 0 1-.416-.742v-10.91c-6.064.28-10.91 5.316-10.91 11.466 0 1.89.467 3.763 1.351 5.417a.87.87 0 0 1-.354 1.177.865.865 0 0 1-1.174-.354 13.278 13.278 0 0 1-1.558-6.24c0-7.11 5.625-12.925 12.645-13.207v-2.2a.869.869 0 0 1 .923-.868c8.53.552 15.21 7.705 15.21 16.285zm-1.734 0c0-7.355-5.491-13.535-12.665-14.46v13.405l11.417 6.973a14.68 14.68 0 0 0 1.248-5.918z"/><path fill="url(#pheza)" d="M33.479 6.498a.872.872 0 0 1-.26.62l-5.182 5.098a.866.866 0 0 1-1.474-.622V10.32c-7.957.402-14.981 5.615-17.652 13.197a.866.866 0 0 1-1.106.53.87.87 0 0 1-.528-1.11c3.01-8.546 11.107-14.326 20.148-14.38.234.001.452.089.616.252a.872.872 0 0 1 .256.617v.098l3.077-3.026-3.077-3.026v.306a.868.868 0 0 1-.863.87c-6.759.032-13.107 2.696-17.877 7.501-4.771 4.807-7.4 11.19-7.4 17.974 0 8.946 4.693 17.23 12.307 21.832l1.84-3.452a21.627 21.627 0 0 1-9.942-22.037.868.868 0 0 1 1-.71.87.87 0 0 1 .71 1.004 19.882 19.882 0 0 0 9.814 20.659c.41.231.56.75.339 1.167l-2.655 4.982a.869.869 0 0 1-.765.46.852.852 0 0 1-.421-.11A27.266 27.266 0 0 1 .424 30.123c0-7.247 2.807-14.065 7.904-19.2 4.892-4.929 11.339-7.75 18.235-7.997V1.401A.868.868 0 0 1 28.037.78l5.182 5.097a.87.87 0 0 1 .26.62zm21.212 23.625c0 7.188-2.769 13.968-7.797 19.09-4.822 4.911-11.195 7.765-18.025 8.09v1.624a.87.87 0 0 1-.867.87.865.865 0 0 1-.607-.25l-5.182-5.096a.872.872 0 0 1 0-1.241l5.182-5.097a.865.865 0 0 1 1.474.62v1.172a19.706 19.706 0 0 0 8.83-2.761 19.926 19.926 0 0 0 6.922-7.003.866.866 0 0 1 1.186-.31.871.871 0 0 1 .309 1.19 21.678 21.678 0 0 1-7.526 7.615 21.442 21.442 0 0 1-10.57 3.046.87.87 0 0 1-.885-.87v-.009l-3.077 3.027 3.077 3.026v-.395c0-.475.38-.862.853-.87 6.694-.111 12.97-2.81 17.67-7.598 4.707-4.795 7.3-11.141 7.3-17.87a25.52 25.52 0 0 0-3.388-12.719 25.612 25.612 0 0 0-8.146-8.628L39.58 12.24a21.69 21.69 0 0 1 6.687 7.244 21.615 21.615 0 0 1 2.794 10.639c0 2.617-.462 5.176-1.375 7.604a.866.866 0 0 1-1.117.507.87.87 0 0 1-.505-1.12 19.806 19.806 0 0 0 1.264-6.991c0-3.433-.888-6.814-2.569-9.78a19.947 19.947 0 0 0-6.777-7.07.871.871 0 0 1-.307-1.15l2.66-4.99a.867.867 0 0 1 1.211-.335 27.353 27.353 0 0 1 9.526 9.736 27.273 27.273 0 0 1 3.62 13.589zm-11.926.976c0 2.63-.64 5.245-1.85 7.562a.866.866 0 0 1-1.218.34l-1.394-.852c-2.338 3.698-6.456 6.159-11.137 6.159-3.562 0-6.9-1.404-9.397-3.951a.872.872 0 0 1 .01-1.23.866.866 0 0 1 1.226.01 11.344 11.344 0 0 0 8.161 3.431c4.055 0 7.623-2.125 9.657-5.324l-9.775-5.969a.87.87 0 0 1-.416-.742v-10.91c-6.064.28-10.91 5.316-10.91 11.466 0 1.89.467 3.763 1.351 5.417a.87.87 0 0 1-.354 1.177.865.865 0 0 1-1.174-.354 13.278 13.278 0 0 1-1.558-6.24c0-7.11 5.625-12.925 12.645-13.207v-2.2a.869.869 0 0 1 .923-.868c8.53.552 15.21 7.705 15.21 16.285zm-1.734 0c0-7.355-5.491-13.535-12.665-14.46v13.405l11.417 6.973a14.68 14.68 0 0 0 1.248-5.918z"/></g></g></svg>