<svg xmlns="http://www.w3.org/2000/svg" width="58" height="55" viewBox="0 0 58 55"><defs><linearGradient id="ubr3a" x1="28.61" x2="29" y1="55" y2=".74" gradientUnits="userSpaceOnUse"><stop offset="0" stop-color="#16ac9f"/><stop offset="1" stop-color="#1a4865"/></linearGradient></defs><g><g><path fill="#00a79d" d="M36.824 20.322c1.397 0 2.526 1.15 2.526 2.56V33.54c0 1.409-1.14 2.559-2.536 2.559H20.77c-1.397 0-2.536-1.15-2.536-2.56V22.882c0-1.41 1.14-2.559 2.536-2.559h13.83v-3.881c0-3.221-2.601-5.846-5.792-5.846-3.192 0-5.792 2.625-5.792 5.846 0 .541-.44.985-.978.985a.986.986 0 0 1-.978-.985c0-4.305 3.47-7.808 7.737-7.808 4.266 0 7.736 3.503 7.736 7.808v3.881zm5.867 3.503a1 1 0 0 1-.988-.976c0-.542.44-.987.977-.987h8.437a1.948 1.948 0 0 0 1.934-1.952V7.801a3.606 3.606 0 0 1-2.59-3.459c0-1.984 1.601-3.6 3.568-3.6 1.966 0 3.567 1.616 3.567 3.6a3.596 3.596 0 0 1-2.59 3.46V19.91c0 2.158-1.74 3.915-3.879 3.915zm9.726-19.483c0 .9.72 1.627 1.612 1.627.891 0 1.611-.727 1.611-1.627s-.72-1.626-1.611-1.626c-.892 0-1.612.726-1.612 1.626zm2.59 43.586a3.632 3.632 0 0 1 2.6 3.47c0 1.985-1.601 3.6-3.568 3.6-1.966 0-3.567-1.615-3.567-3.6a3.595 3.595 0 0 1 2.59-3.459V37.346c0-1.073-.87-1.952-1.935-1.952h-8.436a.986.986 0 0 1 0-1.972h8.436c2.139 0 3.88 1.756 3.88 3.914zm-.978 5.096c.891 0 1.622-.737 1.611-1.625 0-.901-.72-1.627-1.611-1.627-.892 0-1.612.726-1.612 1.627 0 .899.72 1.625 1.612 1.625zm0-27.995c1.966 0 3.567 1.615 3.567 3.6 0 1.984-1.6 3.6-3.567 3.6-1.634 0-2.998-1.107-3.428-2.614h-7.92a.986.986 0 0 1-.978-.987c0-.542.44-.987.978-.987h7.92c.43-1.507 1.805-2.612 3.428-2.612zm0 5.226a1.61 1.61 0 0 0 1.611-1.627c0-.9-.72-1.626-1.611-1.626-.892 0-1.612.726-1.612 1.626 0 .9.72 1.627 1.612 1.627zm-39.125 3.167c.537 0 .978.444 1 .975 0 .542-.44.987-.978.987H6.49a1.948 1.948 0 0 0-1.934 1.952v10.592a3.606 3.606 0 0 1 2.59 3.46c0 1.984-1.602 3.6-3.568 3.6-1.967 0-3.568-1.616-3.568-3.6a3.596 3.596 0 0 1 2.59-3.46V37.336c0-2.158 1.74-3.914 3.879-3.914zM5.18 51.387c0-.9-.72-1.627-1.612-1.627-.892 0-1.612.727-1.612 1.627s.72 1.626 1.612 1.626c.892 0 1.612-.726 1.612-1.626zm9.725-29.525c.538 0 .978.434.978.976 0 .543-.44.987-.978.987H6.468c-2.138 0-3.879-1.757-3.879-3.915V7.801A3.606 3.606 0 0 1 0 4.342c0-1.984 1.602-3.6 3.568-3.6 1.967 0 3.568 1.616 3.568 3.6a3.596 3.596 0 0 1-2.59 3.46V19.91c0 1.074.87 1.952 1.934 1.952zM1.944 4.342c0 .9.72 1.627 1.612 1.627.892 0 1.612-.727 1.612-1.627s-.72-1.626-1.612-1.626c-.891 0-1.611.726-1.611 1.626zm12.96 23.3c.538 0 .978.444.989.986 0 .542-.44.987-.978.987h-7.92c-.43 1.507-1.805 2.613-3.428 2.613-1.966 0-3.567-1.615-3.567-3.6 0-1.984 1.6-3.599 3.567-3.599 1.633 0 2.998 1.105 3.428 2.612zM3.567 30.254c.892 0 1.612-.726 1.612-1.627 0-.9-.72-1.626-1.612-1.626-.892 0-1.612.726-1.612 1.626 0 .9.72 1.627 1.612 1.627zm26.864-3.253c0 .542-.215.987-.655 1.311-.14.099-.172.196-.172.348v2.103a.726.726 0 0 1-.387.705.811.811 0 0 1-1.214-.705v-2.103c0-.141-.022-.227-.15-.325a1.594 1.594 0 0 1-.527-1.963c.3-.683 1.042-1.084 1.751-.943.785.152 1.333.791 1.354 1.572zm6.963 6.528V22.87a.58.58 0 0 0-.58-.584H20.77a.58.58 0 0 0-.58.585V33.53a.58.58 0 0 0 .58.586h16.053a.58.58 0 0 0 .58-.586z"/><path fill="url(#ubr3a)" d="M36.824 20.322c1.397 0 2.526 1.15 2.526 2.56V33.54c0 1.409-1.14 2.559-2.536 2.559H20.77c-1.397 0-2.536-1.15-2.536-2.56V22.882c0-1.41 1.14-2.559 2.536-2.559h13.83v-3.881c0-3.221-2.601-5.846-5.792-5.846-3.192 0-5.792 2.625-5.792 5.846 0 .541-.44.985-.978.985a.986.986 0 0 1-.978-.985c0-4.305 3.47-7.808 7.737-7.808 4.266 0 7.736 3.503 7.736 7.808v3.881zm5.867 3.503a1 1 0 0 1-.988-.976c0-.542.44-.987.977-.987h8.437a1.948 1.948 0 0 0 1.934-1.952V7.801a3.606 3.606 0 0 1-2.59-3.459c0-1.984 1.601-3.6 3.568-3.6 1.966 0 3.567 1.616 3.567 3.6a3.596 3.596 0 0 1-2.59 3.46V19.91c0 2.158-1.74 3.915-3.879 3.915zm9.726-19.483c0 .9.72 1.627 1.612 1.627.891 0 1.611-.727 1.611-1.627s-.72-1.626-1.611-1.626c-.892 0-1.612.726-1.612 1.626zm2.59 43.586a3.632 3.632 0 0 1 2.6 3.47c0 1.985-1.601 3.6-3.568 3.6-1.966 0-3.567-1.615-3.567-3.6a3.595 3.595 0 0 1 2.59-3.459V37.346c0-1.073-.87-1.952-1.935-1.952h-8.436a.986.986 0 0 1 0-1.972h8.436c2.139 0 3.88 1.756 3.88 3.914zm-.978 5.096c.891 0 1.622-.737 1.611-1.625 0-.901-.72-1.627-1.611-1.627-.892 0-1.612.726-1.612 1.627 0 .899.72 1.625 1.612 1.625zm0-27.995c1.966 0 3.567 1.615 3.567 3.6 0 1.984-1.6 3.6-3.567 3.6-1.634 0-2.998-1.107-3.428-2.614h-7.92a.986.986 0 0 1-.978-.987c0-.542.44-.987.978-.987h7.92c.43-1.507 1.805-2.612 3.428-2.612zm0 5.226a1.61 1.61 0 0 0 1.611-1.627c0-.9-.72-1.626-1.611-1.626-.892 0-1.612.726-1.612 1.626 0 .9.72 1.627 1.612 1.627zm-39.125 3.167c.537 0 .978.444 1 .975 0 .542-.44.987-.978.987H6.49a1.948 1.948 0 0 0-1.934 1.952v10.592a3.606 3.606 0 0 1 2.59 3.46c0 1.984-1.602 3.6-3.568 3.6-1.967 0-3.568-1.616-3.568-3.6a3.596 3.596 0 0 1 2.59-3.46V37.336c0-2.158 1.74-3.914 3.879-3.914zM5.18 51.387c0-.9-.72-1.627-1.612-1.627-.892 0-1.612.727-1.612 1.627s.72 1.626 1.612 1.626c.892 0 1.612-.726 1.612-1.626zm9.725-29.525c.538 0 .978.434.978.976 0 .543-.44.987-.978.987H6.468c-2.138 0-3.879-1.757-3.879-3.915V7.801A3.606 3.606 0 0 1 0 4.342c0-1.984 1.602-3.6 3.568-3.6 1.967 0 3.568 1.616 3.568 3.6a3.596 3.596 0 0 1-2.59 3.46V19.91c0 1.074.87 1.952 1.934 1.952zM1.944 4.342c0 .9.72 1.627 1.612 1.627.892 0 1.612-.727 1.612-1.627s-.72-1.626-1.612-1.626c-.891 0-1.611.726-1.611 1.626zm12.96 23.3c.538 0 .978.444.989.986 0 .542-.44.987-.978.987h-7.92c-.43 1.507-1.805 2.613-3.428 2.613-1.966 0-3.567-1.615-3.567-3.6 0-1.984 1.6-3.599 3.567-3.599 1.633 0 2.998 1.105 3.428 2.612zM3.567 30.254c.892 0 1.612-.726 1.612-1.627 0-.9-.72-1.626-1.612-1.626-.892 0-1.612.726-1.612 1.626 0 .9.72 1.627 1.612 1.627zm26.864-3.253c0 .542-.215.987-.655 1.311-.14.099-.172.196-.172.348v2.103a.726.726 0 0 1-.387.705.811.811 0 0 1-1.214-.705v-2.103c0-.141-.022-.227-.15-.325a1.594 1.594 0 0 1-.527-1.963c.3-.683 1.042-1.084 1.751-.943.785.152 1.333.791 1.354 1.572zm6.963 6.528V22.87a.58.58 0 0 0-.58-.584H20.77a.58.58 0 0 0-.58.585V33.53a.58.58 0 0 0 .58.586h16.053a.58.58 0 0 0 .58-.586z"/></g></g></svg>