<svg xmlns="http://www.w3.org/2000/svg" width="54" height="53" viewBox="0 0 54 53"><defs><linearGradient id="nj81a" x1="27.32" x2="26.72" y1="52.59" y2="0" gradientUnits="userSpaceOnUse"><stop offset="0" stop-color="#16ac9f"/><stop offset="1" stop-color="#1a4865"/></linearGradient></defs><g><g><path fill="#00a79d" d="M.723 47.276H6.86v1.751H.723zm3.507-3.503h6.136v1.752H4.23zm-3.507 0h1.753v1.752H.723zm3.507 7.005h6.136v1.751H4.23zm-3.507 0h1.753v1.751H.723zm7.89-3.502h1.753v1.751H8.613zm35.065 0h6.136v1.751h-6.136zm3.507-3.503h6.136v1.752h-6.136zm-3.507 0h1.753v1.752h-1.753zm3.507 7.005h6.136v1.751h-6.136zm-3.507 0h1.753v1.751h-1.753zm7.89-3.502h1.753v1.751h-1.753zM.723 4.376H6.86v1.751H.723zM4.23.875h6.136v1.75H4.23zm-3.507 0h1.753v1.75H.723zM4.23 7.879h6.136v1.75H4.23zm-3.507 0h1.753v1.75H.723zm7.89-3.503h1.753v1.751H8.613zm35.065 0h6.136v1.751h-6.136zM47.185.875h6.136v1.75h-6.136zm-3.507 0h1.753v1.75h-1.753zm3.507 7.004h6.136v1.75h-6.136zm-3.507 0h1.753v1.75h-1.753zm7.89-3.503h1.753v1.751h-1.753zM48.784 40.13a3.504 3.504 0 0 1-4.952-.007l-13.455 7.94a3.499 3.499 0 0 1 0 2.038 3.507 3.507 0 0 1-6.71-2.038l-13.455-7.94a3.5 3.5 0 0 1-5.865-1.596 3.496 3.496 0 0 1 2.513-4.26V18.26a3.494 3.494 0 0 1-1.6-5.863 3.505 3.505 0 0 1 4.952.008l13.455-7.941a3.462 3.462 0 0 1-.151-.963A3.504 3.504 0 0 1 27.022 0 3.504 3.504 0 0 1 30.529 3.5a3.462 3.462 0 0 1-.152.963l13.455 7.94A3.5 3.5 0 0 1 49.697 14a3.496 3.496 0 0 1-2.512 4.26v16.007a3.493 3.493 0 0 1 1.6 5.863zm-4.23-25.248c0 .967.785 1.751 1.754 1.751a1.752 1.752 0 1 0-1.753-1.75zM25.27 3.502c0 .966.785 1.75 1.753 1.75a1.752 1.752 0 1 0-1.753-1.75zM11.09 15.845l15.931 9.4 15.931-9.4a3.133 3.133 0 0 1 0-1.926L29.498 5.978l-.001.002a3.504 3.504 0 0 1-4.95-.002L11.09 13.92c.202.625.202 1.3 0 1.926zm-3.355.787a1.752 1.752 0 1 0 .002-3.504 1.752 1.752 0 0 0-.002 3.504zM9.49 37.645c0-.967-.785-1.75-1.754-1.75a1.752 1.752 0 1 0 0 3.501c.968 0 1.754-.784 1.754-1.75zm15.056 8.904a3.496 3.496 0 0 1 1.6-.9V26.764L10.21 17.36a3.492 3.492 0 0 1-1.598.9v16.007c.07.018.14.036.21.058a3.426 3.426 0 0 1 2.268 4.283zm4.23 2.478c0-.968-.786-1.75-1.754-1.75a1.752 1.752 0 1 0 0 3.501c.968 0 1.753-.784 1.753-1.75zm16.655-14.76V18.26a3.506 3.506 0 0 1-1.599-.9L27.9 26.764v18.885a3.496 3.496 0 0 1 1.599.9l13.455-7.94a3.468 3.468 0 0 1-.152-.964 3.504 3.504 0 0 1 2.63-3.378zm2.63 3.378c0-.967-.785-1.75-1.753-1.75a1.752 1.752 0 1 0 0 3.501c.968 0 1.753-.784 1.753-1.75zM20.18 29.287l1.41-.833.892 1.508-1.41.832zm-2.82 1.665l1.41-.833.892 1.508-1.41.832zM23 27.622l1.41-.833.892 1.507-1.41.833zm-8.461 4.992l1.41-.832.892 1.508-1.41.832zm-2.826 1.668l1.41-.833.893 1.507-1.41.833zm28.311.67l.892-1.508 1.41.833-.891 1.508zm-2.82-1.664l.892-1.508 1.411.833-.892 1.508zm-2.824-1.662l.892-1.507 1.41.832-.891 1.507zm-5.643-3.328l.892-1.508 1.41.834-.892 1.507zm2.824 1.662l.892-1.508 1.41.833-.891 1.508zm-5.417-8.073H27.9v1.75h-1.754zm0-3.502H27.9v1.75h-1.754zm0-3.503H27.9v1.751h-1.754zm0-3.501H27.9v1.75h-1.754zm0-3.502H27.9v1.75h-1.754z"/><path fill="url(#nj81a)" d="M.723 47.276H6.86v1.751H.723zm3.507-3.503h6.136v1.752H4.23zm-3.507 0h1.753v1.752H.723zm3.507 7.005h6.136v1.751H4.23zm-3.507 0h1.753v1.751H.723zm7.89-3.502h1.753v1.751H8.613zm35.065 0h6.136v1.751h-6.136zm3.507-3.503h6.136v1.752h-6.136zm-3.507 0h1.753v1.752h-1.753zm3.507 7.005h6.136v1.751h-6.136zm-3.507 0h1.753v1.751h-1.753zm7.89-3.502h1.753v1.751h-1.753zM.723 4.376H6.86v1.751H.723zM4.23.875h6.136v1.75H4.23zm-3.507 0h1.753v1.75H.723zM4.23 7.879h6.136v1.75H4.23zm-3.507 0h1.753v1.75H.723zm7.89-3.503h1.753v1.751H8.613zm35.065 0h6.136v1.751h-6.136zM47.185.875h6.136v1.75h-6.136zm-3.507 0h1.753v1.75h-1.753zm3.507 7.004h6.136v1.75h-6.136zm-3.507 0h1.753v1.75h-1.753zm7.89-3.503h1.753v1.751h-1.753zM48.784 40.13a3.504 3.504 0 0 1-4.952-.007l-13.455 7.94a3.499 3.499 0 0 1 0 2.038 3.507 3.507 0 0 1-6.71-2.038l-13.455-7.94a3.5 3.5 0 0 1-5.865-1.596 3.496 3.496 0 0 1 2.513-4.26V18.26a3.494 3.494 0 0 1-1.6-5.863 3.505 3.505 0 0 1 4.952.008l13.455-7.941a3.462 3.462 0 0 1-.151-.963A3.504 3.504 0 0 1 27.022 0 3.504 3.504 0 0 1 30.529 3.5a3.462 3.462 0 0 1-.152.963l13.455 7.94A3.5 3.5 0 0 1 49.697 14a3.496 3.496 0 0 1-2.512 4.26v16.007a3.493 3.493 0 0 1 1.6 5.863zm-4.23-25.248c0 .967.785 1.751 1.754 1.751a1.752 1.752 0 1 0-1.753-1.75zM25.27 3.502c0 .966.785 1.75 1.753 1.75a1.752 1.752 0 1 0-1.753-1.75zM11.09 15.845l15.931 9.4 15.931-9.4a3.133 3.133 0 0 1 0-1.926L29.498 5.978l-.001.002a3.504 3.504 0 0 1-4.95-.002L11.09 13.92c.202.625.202 1.3 0 1.926zm-3.355.787a1.752 1.752 0 1 0 .002-3.504 1.752 1.752 0 0 0-.002 3.504zM9.49 37.645c0-.967-.785-1.75-1.754-1.75a1.752 1.752 0 1 0 0 3.501c.968 0 1.754-.784 1.754-1.75zm15.056 8.904a3.496 3.496 0 0 1 1.6-.9V26.764L10.21 17.36a3.492 3.492 0 0 1-1.598.9v16.007c.07.018.14.036.21.058a3.426 3.426 0 0 1 2.268 4.283zm4.23 2.478c0-.968-.786-1.75-1.754-1.75a1.752 1.752 0 1 0 0 3.501c.968 0 1.753-.784 1.753-1.75zm16.655-14.76V18.26a3.506 3.506 0 0 1-1.599-.9L27.9 26.764v18.885a3.496 3.496 0 0 1 1.599.9l13.455-7.94a3.468 3.468 0 0 1-.152-.964 3.504 3.504 0 0 1 2.63-3.378zm2.63 3.378c0-.967-.785-1.75-1.753-1.75a1.752 1.752 0 1 0 0 3.501c.968 0 1.753-.784 1.753-1.75zM20.18 29.287l1.41-.833.892 1.508-1.41.832zm-2.82 1.665l1.41-.833.892 1.508-1.41.832zM23 27.622l1.41-.833.892 1.507-1.41.833zm-8.461 4.992l1.41-.832.892 1.508-1.41.832zm-2.826 1.668l1.41-.833.893 1.507-1.41.833zm28.311.67l.892-1.508 1.41.833-.891 1.508zm-2.82-1.664l.892-1.508 1.411.833-.892 1.508zm-2.824-1.662l.892-1.507 1.41.832-.891 1.507zm-5.643-3.328l.892-1.508 1.41.834-.892 1.507zm2.824 1.662l.892-1.508 1.41.833-.891 1.508zm-5.417-8.073H27.9v1.75h-1.754zm0-3.502H27.9v1.75h-1.754zm0-3.503H27.9v1.751h-1.754zm0-3.501H27.9v1.75h-1.754zm0-3.502H27.9v1.75h-1.754z"/></g></g></svg>