<svg xmlns="http://www.w3.org/2000/svg" width="58" height="53" viewBox="0 0 58 53"><defs><linearGradient id="lm6ca" x1="28.99" x2="29.38" y1="52.49" y2=".74" gradientUnits="userSpaceOnUse"><stop offset="0" stop-color="#16ac9f"/><stop offset="1" stop-color="#1a4865"/></linearGradient></defs><g><g><path fill="#00a79d" d="M54.957 42.474c-.19.611-.438 1.209-.74 1.784l1.326 2.972-2.806 2.813-2.964-1.329c-.57.3-1.167.547-1.78.74l-1.158 3.04h-3.971l-1.155-3.04a10.552 10.552 0 0 1-1.78-.74l-2.962 1.33-2.809-2.814 1.328-2.972c-.3-.57-.548-1.167-.74-1.783l-3.033-1.16v-3.982l3.033-1.158c.192-.617.44-1.215.74-1.786l-1.328-2.97 2.809-2.815 2.962 1.33c.57-.3 1.164-.547 1.78-.74l1.155-3.042h3.972l1.156 3.042c.613.192 1.21.44 1.781.742l2.965-1.332 2.806 2.816-1.328 2.97c.304.575.55 1.172.742 1.785l3.033 1.16-.002 3.98zm1.21-2.417v-1.462l-2.724-1.042-.118-.455a8.774 8.774 0 0 0-.915-2.203l-.236-.406 1.193-2.667-1.032-1.036-2.66 1.197-.405-.237a8.805 8.805 0 0 0-2.2-.915l-.452-.12-1.038-2.73h-1.46l-1.037 2.73-.453.12a8.71 8.71 0 0 0-2.196.915l-.405.237-2.662-1.197-1.032 1.036 1.193 2.668-.238.406a8.773 8.773 0 0 0-.913 2.204l-.12.455-2.722 1.039v1.463l2.723 1.041.119.453c.203.773.511 1.515.913 2.202l.238.406-1.193 2.67 1.032 1.034 2.662-1.195.404.238a8.77 8.77 0 0 0 2.198.913l.452.12 1.037 2.729h1.46l1.039-2.73.452-.119a8.88 8.88 0 0 0 2.2-.915l.404-.236 2.66 1.194 1.032-1.034-1.193-2.669.237-.406c.408-.698.715-1.439.914-2.2l.119-.455zm-5.724-.732c0 3.092-2.508 5.608-5.593 5.608-3.084 0-5.594-2.516-5.594-5.608 0-3.093 2.51-5.61 5.594-5.61 3.085 0 5.593 2.517 5.593 5.61zm-1.822 0a3.78 3.78 0 0 0-3.77-3.782 3.78 3.78 0 0 0-3.773 3.782 3.78 3.78 0 0 0 3.772 3.78 3.78 3.78 0 0 0 3.771-3.78zM.384 25.023h5.182v1.826H.384zm5.182 6.962h5.572v1.826H5.566zm0 3.476h5.572v1.827H5.566zm0 10.442h5.572v1.827H5.566zm0 3.48h5.572v1.826H5.566zM.384 28.502h10.755v1.826H.384zm0 10.44h5.182v1.827H.384zm5.182-20.88h5.572v1.827H5.566zm0 3.48h5.572v1.827H5.566zM.384 14.58h10.755v1.828H.384zm0 27.843h10.755v1.827H.384zm12.934 3.48h5.573v1.827h-5.573zm0 3.48h10.755v1.826H13.318zM17.68 3.99h1.823v1.827H17.68zm3.644 0h1.823v1.827h-1.823zm3.646 0h1.823v1.827H24.97zm-9.923 38.432h15.151v1.827H13.225V.744H49.47v24.624h-1.823V9.064h-32.6zm0-35.186h32.6V2.571h-32.6z"/><path fill="url(#lm6ca)" d="M54.957 42.474c-.19.611-.438 1.209-.74 1.784l1.326 2.972-2.806 2.813-2.964-1.329c-.57.3-1.167.547-1.78.74l-1.158 3.04h-3.971l-1.155-3.04a10.552 10.552 0 0 1-1.78-.74l-2.962 1.33-2.809-2.814 1.328-2.972c-.3-.57-.548-1.167-.74-1.783l-3.033-1.16v-3.982l3.033-1.158c.192-.617.44-1.215.74-1.786l-1.328-2.97 2.809-2.815 2.962 1.33c.57-.3 1.164-.547 1.78-.74l1.155-3.042h3.972l1.156 3.042c.613.192 1.21.44 1.781.742l2.965-1.332 2.806 2.816-1.328 2.97c.304.575.55 1.172.742 1.785l3.033 1.16-.002 3.98zm1.21-2.417v-1.462l-2.724-1.042-.118-.455a8.774 8.774 0 0 0-.915-2.203l-.236-.406 1.193-2.667-1.032-1.036-2.66 1.197-.405-.237a8.805 8.805 0 0 0-2.2-.915l-.452-.12-1.038-2.73h-1.46l-1.037 2.73-.453.12a8.71 8.71 0 0 0-2.196.915l-.405.237-2.662-1.197-1.032 1.036 1.193 2.668-.238.406a8.773 8.773 0 0 0-.913 2.204l-.12.455-2.722 1.039v1.463l2.723 1.041.119.453c.203.773.511 1.515.913 2.202l.238.406-1.193 2.67 1.032 1.034 2.662-1.195.404.238a8.77 8.77 0 0 0 2.198.913l.452.12 1.037 2.729h1.46l1.039-2.73.452-.119a8.88 8.88 0 0 0 2.2-.915l.404-.236 2.66 1.194 1.032-1.034-1.193-2.669.237-.406c.408-.698.715-1.439.914-2.2l.119-.455zm-5.724-.732c0 3.092-2.508 5.608-5.593 5.608-3.084 0-5.594-2.516-5.594-5.608 0-3.093 2.51-5.61 5.594-5.61 3.085 0 5.593 2.517 5.593 5.61zm-1.822 0a3.78 3.78 0 0 0-3.77-3.782 3.78 3.78 0 0 0-3.773 3.782 3.78 3.78 0 0 0 3.772 3.78 3.78 3.78 0 0 0 3.771-3.78zM.384 25.023h5.182v1.826H.384zm5.182 6.962h5.572v1.826H5.566zm0 3.476h5.572v1.827H5.566zm0 10.442h5.572v1.827H5.566zm0 3.48h5.572v1.826H5.566zM.384 28.502h10.755v1.826H.384zm0 10.44h5.182v1.827H.384zm5.182-20.88h5.572v1.827H5.566zm0 3.48h5.572v1.827H5.566zM.384 14.58h10.755v1.828H.384zm0 27.843h10.755v1.827H.384zm12.934 3.48h5.573v1.827h-5.573zm0 3.48h10.755v1.826H13.318zM17.68 3.99h1.823v1.827H17.68zm3.644 0h1.823v1.827h-1.823zm3.646 0h1.823v1.827H24.97zm-9.923 38.432h15.151v1.827H13.225V.744H49.47v24.624h-1.823V9.064h-32.6zm0-35.186h32.6V2.571h-32.6z"/></g></g></svg>