<svg xmlns="http://www.w3.org/2000/svg" width="571" height="126" viewBox="0 0 571 126"><g><g><path fill="#1a4865" d="M157.127 96.453c-25.235 0-37.853-12.25-37.853-36.77 0-22.701 12.618-34.052 37.853-34.052 6.298 0 12.387.667 18.247 2.025v14.16c-5.86-1.358-11.488-2.025-16.909-2.025-14.185 0-21.29 6.63-21.29 19.893 0 15.08 7.105 22.608 21.29 22.608 5.42 0 11.05-.69 16.909-2.026v14.16c-5.86 1.36-11.95 2.027-18.247 2.027zm54.016-43.17c4.822 0 9.642.459 14.464 1.357V49.3c0-6.332-4.591-9.51-13.726-9.51-7.75 0-16.355 1.129-25.812 3.384V28.992c9.457-2.233 18.062-3.361 25.812-3.361 21.084 0 31.625 7.781 31.625 23.322v47.5h-10.402l-6.367-6.331c-6.16 4.212-12.964 6.33-20.392 6.33-17.347 0-26.02-7.345-26.02-22.057 0-14.067 10.265-21.112 30.818-21.112zm0 12.133c-8.604 0-12.917 2.925-12.917 8.772 0 6.308 3.598 9.44 10.818 9.44 5.95 0 11.464-1.842 16.563-5.525V66.774c-4.522-.897-9.343-1.358-14.464-1.358zm57.983-51.252l2.722 11.467h17.83v14.16h-15.87V72.37c0 6.607 2.861 9.922 8.582 9.922h7.288v14.16H273.74c-11.904 0-17.856-6.355-17.856-19.087v-63.2zm56.668 39.12c4.821 0 9.642.458 14.463 1.356V49.3c0-6.332-4.59-9.51-13.725-9.51-7.75 0-16.355 1.129-25.811 3.384V28.992c9.456-2.233 18.06-3.361 25.81-3.361 21.084 0 31.626 7.781 31.626 23.322v47.5h-10.403l-6.366-6.331c-6.16 4.212-12.964 6.33-20.391 6.33-17.347 0-26.02-7.345-26.02-22.057 0-14.067 10.264-21.112 30.817-21.112zm0 12.132c-8.605 0-12.918 2.925-12.918 8.772 0 6.308 3.599 9.44 10.819 9.44 5.95 0 11.464-1.842 16.562-5.525V66.774c-4.52-.897-9.342-1.358-14.463-1.358zm63.68 31.037h-17.923V.005h17.923zM413.41 25.63l17.924 50.997 17.484-50.997h18.662l-29.457 72.916c-5.236 12.848-13.587 22.011-25.075 27.445l-8.65-12.203c7.913-3.453 13.68-9.117 17.3-16.922L394.427 25.63zm59.02 52.609c7.89 3.155 17.002 4.72 27.313 4.72 7.705 0 11.557-2.464 11.557-7.413 0-4.72-2.606-7.092-7.774-7.092h-12.849c-14.417 0-21.614-7.069-21.614-21.25 0-14.828 10.519-22.242 31.556-22.242 8.927 0 17.324 1.335 25.212 4.03v14.85c-7.888-3.155-16.446-4.72-25.697-4.72-9.687 0-14.509 2.462-14.509 7.414 0 4.72 2.815 7.09 8.443 7.09h11.488c15.754 0 23.645 7.069 23.645 21.23 0 14.85-10.036 22.264-30.127 22.264-9.873 0-18.754-1.336-26.643-4.03zm64.767-64.076h13.24l2.722 11.467h17.83v14.16h-15.87V72.37c0 6.607 2.862 9.922 8.582 9.922h7.289v14.16h-15.94c-11.903 0-17.853-6.355-17.853-19.087z"/></g><g><path fill="#16ac9f" d="M43.72 7.661l52.997 52.9-52.998 52.898-14.49-14.463c14.494-3.146 26.013-14.254 29.728-28.503H39.109c-3.53 6.463-10.397 10.85-18.29 10.85C9.32 81.343-.002 72.037-.002 60.56c0-11.475 9.322-20.781 20.82-20.781 7.894 0 14.764 4.386 18.294 10.85h19.845c-3.715-14.248-15.235-25.358-29.73-28.502z"/></g></g></svg>