<svg xmlns="http://www.w3.org/2000/svg" width="168" height="37" viewBox="0 0 168 37"><g><g><path fill="#fff" d="M46.23 28.323c-7.425 0-11.137-3.597-11.137-10.797 0-6.666 3.712-10 11.137-10 1.853 0 3.645.197 5.368.595v4.158c-1.723-.399-3.38-.595-4.974-.595-4.174 0-6.264 1.948-6.264 5.842 0 4.429 2.09 6.64 6.264 6.64 1.595 0 3.25-.204 4.974-.596v4.158a23.73 23.73 0 0 1-5.368.595zm15.893-12.677c1.418 0 2.836.135 4.255.399v-1.568c0-1.86-1.35-2.793-4.038-2.793-2.28 0-4.812.331-7.595.994V8.513c2.783-.655 5.314-.987 7.595-.987 6.203 0 9.304 2.285 9.304 6.85v13.947h-3.06l-1.873-1.86c-1.813 1.238-3.815 1.86-6 1.86-5.104 0-7.656-2.157-7.656-6.477 0-4.13 3.02-6.2 9.068-6.2zm0 3.563c-2.532 0-3.801.86-3.801 2.576 0 1.853 1.059 2.772 3.183 2.772 1.75 0 3.373-.54 4.873-1.622v-3.327a21.85 21.85 0 0 0-4.255-.4zm17.06-15.05l.8 3.367h5.246v4.158H80.56v9.567c0 1.94.842 2.914 2.525 2.914h2.144v4.158h-4.69c-3.502 0-5.253-1.866-5.253-5.605V4.159zm16.672 11.487c1.419 0 2.837.135 4.256.399v-1.568c0-1.86-1.351-2.793-4.039-2.793-2.28 0-4.812.331-7.594.994V8.513c2.782-.655 5.314-.987 7.594-.987 6.203 0 9.305 2.285 9.305 6.85v13.947h-3.06l-1.874-1.86c-1.812 1.238-3.814 1.86-6 1.86-5.103 0-7.655-2.157-7.655-6.477 0-4.13 3.02-6.2 9.067-6.2zm0 3.563c-2.532 0-3.8.86-3.8 2.576 0 1.853 1.058 2.772 3.183 2.772 1.75 0 3.373-.54 4.873-1.622v-3.327c-1.33-.264-2.75-.4-4.256-.4zm18.736 9.114h-5.273V.002h5.273zm7.043-20.797l5.273 14.976 5.144-14.976h5.491l-8.667 21.412c-1.54 3.772-3.997 6.464-7.377 8.06l-2.545-3.584c2.328-1.015 4.024-2.678 5.09-4.97l-7.995-20.918zm17.365 15.45c2.32.925 5.002 1.385 8.036 1.385 2.267 0 3.4-.723 3.4-2.177 0-1.386-.767-2.083-2.287-2.083h-3.78c-4.243 0-6.36-2.076-6.36-6.24 0-4.354 3.095-6.531 9.284-6.531 2.627 0 5.097.393 7.418 1.183v4.361c-2.32-.927-4.839-1.386-7.56-1.386-2.85 0-4.27.724-4.27 2.177 0 1.386.829 2.082 2.485 2.082h3.38c4.635 0 6.957 2.076 6.957 6.234 0 4.361-2.953 6.538-8.864 6.538-2.905 0-5.518-.392-7.84-1.183zm19.055-18.817h3.896l.8 3.367h5.247v4.158h-4.67v9.567c0 1.94.842 2.914 2.525 2.914h2.145v4.158h-4.69c-3.502 0-5.253-1.866-5.253-5.605z"/></g><g><path fill="#fff" d="M12.863 2.25l15.593 15.533-15.593 15.534L8.6 29.07a11.594 11.594 0 0 0 8.746-8.37h-5.84a6.128 6.128 0 0 1-5.38 3.186c-3.384 0-6.127-2.733-6.127-6.103 0-3.37 2.743-6.102 6.126-6.102a6.129 6.129 0 0 1 5.382 3.186h5.84a11.594 11.594 0 0 0-8.748-8.37z"/></g></g></svg>