<svg xmlns="http://www.w3.org/2000/svg" width="39" height="10" viewBox="0 0 39 10">
  <defs>
    <style>
      .cls-1 {
        fill: #fff;
        fill-rule: evenodd;
      }
    </style>
  </defs>
  <path id="arrow" class="cls-1" d="M1482.77,5646.43h0l-4.11-4.2a0.77,0.77,0,0,0-1.11.01,0.815,0.815,0,0,0,0,1.14l2.76,2.81h-35.52a0.81,0.81,0,0,0,0,1.62h35.52l-2.76,2.81a0.815,0.815,0,0,0,0,1.14,0.77,0.77,0,0,0,1.11.01l4.11-4.2h0A0.815,0.815,0,0,0,1482.77,5646.43Z" transform="translate(-1444 -5642)"/>
</svg>
