<svg xmlns="http://www.w3.org/2000/svg" width="16" height="12" viewBox="0 0 16 12">
  <defs>
    <style>
      .cls-1 {
        fill: #16ac9f;
        fill-rule: evenodd;
      }
    </style>
  </defs>
  <path id="mail" class="cls-1" d="M835.1,7830H822.9a1.855,1.855,0,0,0-1.9,1.8v8.4a1.855,1.855,0,0,0,1.9,1.8h12.2a1.855,1.855,0,0,0,1.9-1.8v-8.4A1.855,1.855,0,0,0,835.1,7830Zm0,10.41H822.9a0.268,0.268,0,0,1-.289-0.21v-7.29l5.519,4.6a0.607,0.607,0,0,0,.4.15h0.932a0.607,0.607,0,0,0,.4-0.15l5.519-4.6v7.29A0.268,0.268,0,0,1,835.1,7840.41Zm-6.1-4.33-5.368-4.49h10.735Z" transform="translate(-821 -7830)"/>
</svg>
