<svg xmlns="http://www.w3.org/2000/svg" width="12" height="11" viewBox="0 0 12 11">
  <defs>
    <style>
      .cls-1 {
        fill-rule: evenodd;
      }
    </style>
  </defs>
  <path id="close" class="cls-1" d="M1061.59,140.165l-3.64,3.334,3.64,3.334a1.2,1.2,0,0,1,0,1.8,1.456,1.456,0,0,1-.98.372,1.438,1.438,0,0,1-.98-0.372l-3.65-3.335-3.64,3.335a1.438,1.438,0,0,1-.98.372,1.456,1.456,0,0,1-.98-0.372,1.2,1.2,0,0,1,0-1.8l3.64-3.334-3.64-3.334a1.2,1.2,0,0,1,0-1.8,1.477,1.477,0,0,1,1.96,0l3.64,3.334,3.65-3.334a1.477,1.477,0,0,1,1.96,0A1.2,1.2,0,0,1,1061.59,140.165Z" transform="translate(-1050 -138)"/>
</svg>
