<svg xmlns="http://www.w3.org/2000/svg" width="11.19" height="10.38" viewBox="0 0 11.19 10.38">
  <defs>
    <style>
      .cls-1 {
        fill: #fff;
        fill-rule: evenodd;
      }
    </style>
  </defs>
  <path id="linkedin" class="cls-1" d="M1009.2,7837.18v4.02h-2.4v-3.76c0-.94-0.35-1.58-1.22-1.58a1.315,1.315,0,0,0-1.23.85,1.635,1.635,0,0,0-.08.57v3.92h-2.4s0.03-6.36,0-7.02h2.4v1a0.035,0.035,0,0,0-.01.02h0.01v-0.02a2.4,2.4,0,0,1,2.17-1.16C1008.02,7834.02,1009.2,7835.02,1009.2,7837.18Zm-9.842-6.38a1.217,1.217,0,1,0-.031,2.42h0.016A1.217,1.217,0,1,0,999.358,7830.8Zm-1.216,10.4h2.4v-7.02h-2.4v7.02Z" transform="translate(-998 -7830.81)"/>
</svg>
