<svg xmlns="http://www.w3.org/2000/svg" width="11.19" height="9.6" viewBox="0 0 11.19 9.6">
  <defs>
    <style>
      .cls-1 {
        fill: #fff;
        fill-rule: evenodd;
      }
    </style>
  </defs>
  <path id="twitter" class="cls-1" d="M1064.69,7831.78a4.649,4.649,0,0,1-1.46.58,2.249,2.249,0,0,0-1.68-.76,2.352,2.352,0,0,0-2.29,2.42,2.44,2.44,0,0,0,.06.55,6.4,6.4,0,0,1-4.74-2.53,2.525,2.525,0,0,0,.71,3.24,2.3,2.3,0,0,1-1.04-.31V7835a2.392,2.392,0,0,0,1.84,2.38,1.977,1.977,0,0,1-.6.08,2.024,2.024,0,0,1-.43-0.04,2.316,2.316,0,0,0,2.14,1.68,4.419,4.419,0,0,1-2.85,1.04,4.933,4.933,0,0,1-.55-0.03,6.239,6.239,0,0,0,3.52,1.09c4.23,0,6.54-3.7,6.54-6.9l-0.01-.31a4.781,4.781,0,0,0,1.15-1.26,4.2,4.2,0,0,1-1.32.39A2.444,2.444,0,0,0,1064.69,7831.78Z" transform="translate(-1053.81 -7831.59)"/>
</svg>
