<svg xmlns="http://www.w3.org/2000/svg" width="7.188" height="10.38" viewBox="0 0 7.188 10.38">
  <defs>
    <style>
      .cls-1 {
        fill: #fff;
        fill-rule: evenodd;
      }
    </style>
  </defs>
  <path id="fb" class="cls-1" d="M953.928,7830.8H952.2a3.062,3.062,0,0,0-3.193,3.34v0.75h-1.737a0.273,0.273,0,0,0-.272.28v2.23a0.279,0.279,0,0,0,.272.28h1.736v3.24a0.279,0.279,0,0,0,.272.28h2.265a0.279,0.279,0,0,0,.272-0.28v-3.24h2.03a0.279,0.279,0,0,0,.272-0.28v-2.23a0.272,0.272,0,0,0-.271-0.28h-2.031v-0.51a0.782,0.782,0,0,1,.949-0.95h1.163a0.272,0.272,0,0,0,.271-0.28v-2.07A0.272,0.272,0,0,0,953.928,7830.8Z" transform="translate(-947 -7830.81)"/>
</svg>
